<svg width="550" height="550" viewBox="0 0 550 550" fill="none" xmlns="http://www.w3.org/2000/svg">
<g id="logo_touming">
<g id="logo-&#231;&#153;&#189;">
<path id="Vector 893" opacity="0.8" d="M349.235 266.227C346.557 265.519 343.994 264.785 341.569 264.002C343.487 264.002 346.322 264.609 349.235 266.227C396.512 278.723 479.991 283.332 479.991 413.53C479.991 525.002 289.718 477.098 205 449.101C231.542 453.053 298.329 450.881 353.142 410.568C363.327 403.981 362.864 395.417 362.864 392.453C362.864 389.489 363.79 310.443 360.549 284.424C359.106 274.36 354.063 268.907 349.235 266.227Z" fill="#9F81FC"/>
<path id="Vector 892" d="M440.5 166.503L415.5 330.503C397.167 315.003 360.251 303.405 394.5 363.503C421 410.003 362 437.003 349.5 430.503L256.5 408.003H190.5L118 388.003V219.503L161 120.503L314.5 82.0029L440.5 166.503Z" fill="white"/>
<g id="Group 1171275599">
<path id="Vector 879" d="M33.3173 205.343C7.71732 273.743 38.6507 331.51 57.3173 351.843L136.817 236.844L159.317 169.844L201.317 135.844L264.317 104.344L407.317 93.3433C233.317 -5.65672 65.3173 119.843 33.3173 205.343Z" fill="url(#paint0_linear_2598_15864)"/>
<path id="Vector 874" d="M57.3174 389.344V351.844L108.817 366.844L264.817 448.844L284.054 471.844C290.475 471.51 302.417 471.144 300.817 472.344C299.217 473.544 291.651 475.51 287.817 476.344C59.3174 522.844 57.3174 399.344 57.3174 389.344Z" fill="#FF85C6"/>
<path id="Vector 881" d="M197.317 134.344C212.517 117.544 250.984 98.0104 268.317 91.3438C299.117 96.5437 322.817 106.51 330.817 110.844C280.317 99.8438 224.317 124.844 197.317 134.344Z" fill="#FF9978"/>
<path id="Vector 880" d="M344.817 463.344C362.098 452.501 354.317 427.344 340.817 416.844C313.317 430.677 254.4 468.603 272 475.003C294 483.003 319.317 479.344 344.817 463.344Z" fill="#F7658C"/>
<path id="Subtract" fill-rule="evenodd" clip-rule="evenodd" d="M180.641 391.975C174.113 391.226 162.795 384.627 160.317 360.345C157.086 323.882 157.69 218.823 157.802 199.343C157.811 197.72 157.817 196.691 157.817 196.345C157.817 196.17 157.817 195.982 157.816 195.781C157.796 190.837 157.746 178.456 168.317 168.845C206.441 129.434 249.928 114.035 283.716 109.668C143.751 121.807 78.8381 248.118 63.8174 310.347L64.1688 310.637C59.0859 328.958 57.441 344.801 57.3174 351.845C106.817 426.345 249.317 492.345 305.817 470.845C362.317 449.345 349.817 419.845 327.317 403.345C309.317 390.145 282.484 356.179 271.317 340.845C237.764 292.123 260.83 275.092 272.541 266.445C273.569 265.686 274.51 264.991 275.317 264.346C285.317 256.346 296.317 246.844 299.317 230.346C303.136 209.344 284.344 197.767 268.817 197.345C256.532 197.012 232.689 204.522 235.455 237.201C235.457 237.248 235.461 237.296 235.467 237.344C237.767 257.011 242.575 326.797 244.57 355.756L244.57 355.757L244.817 359.345C246.417 382.545 230.817 393.344 222.317 395.345C216.173 396.289 199.662 395.449 180.641 391.975Z" fill="url(#paint1_linear_2598_15864)"/>
<path id="Vector 875" opacity="0.6" d="M170.639 386.3C174.216 388.214 177.622 389.897 180.817 391.347C178.331 391.347 174.415 390.018 170.639 386.3C119.536 358.957 33.5552 284.347 31.3168 164.347C29.7218 78.8444 236.818 67.8437 328.317 110.347C299.65 104.346 227.518 107.644 168.318 168.844C157.318 178.844 157.818 191.844 157.818 196.344C157.818 200.844 156.818 320.844 160.318 360.344C161.688 373.771 166.061 381.792 170.639 386.3Z" fill="#9F81FC"/>
<path id="Vector 872" d="M393.817 365.844C385.317 363.844 360.317 344.844 348.817 327.344C337.545 310.189 320.026 298.32 368.317 265.362C370.586 263.531 374.09 260.352 375.841 258.4C376.001 258.215 376.16 258.029 376.319 257.844C406.571 222.399 403.179 183.186 397.317 167.344L432.817 156.844C447.317 209.844 472.417 321.744 456.817 345.344C437.317 374.844 402.317 367.844 393.817 365.844Z" fill="url(#paint2_linear_2598_15864)"/>
<path id="Vector 870" d="M520.318 319.844C551.518 181.844 468.317 110.344 407.317 93.8438C422.238 102.85 425.783 141.323 429.317 163.844C438.931 225.094 423.469 294.28 429.318 306.344C472.318 393.844 515.818 339.344 520.318 319.844Z" fill="#FFCDA4"/>
<path id="Vector 871" d="M404.817 92.3437C348.017 65.1437 288.151 81.0104 265.317 92.3437C280.317 90.8437 324.317 109.344 335.317 113.344C404.711 138.578 416.817 218.344 420.817 268.344C424.817 318.344 452.817 351.844 457.317 344.844C482.317 303.344 487.317 228.844 472.317 177.344C457.317 125.844 412.817 97.3438 404.817 92.3437Z" fill="url(#paint3_linear_2598_15864)"/>
<g id="drip-full 2" clip-path="url(#clip0_2598_15864)">
<path id="Vector" d="M431.35 49.6772C435.667 41.9224 444.507 38.4829 450.931 42.0589C457.356 45.6348 459.09 54.9607 454.773 62.7155C450.476 70.4362 442.369 73.4701 435.925 76.9024C434.345 77.7443 432.726 77.7058 431.476 77.0102C430.226 76.3145 429.34 74.9585 429.224 73.1722C428.746 65.887 427.053 57.3979 431.35 49.6772Z" fill="#FF469A"/>
</g>
<g id="drip-full 3" clip-path="url(#clip1_2598_15864)">
<path id="Vector_2" d="M468.093 63.016C480.492 58.9804 493.244 63.486 496.34 72.9958C499.435 82.5056 491.778 93.6543 479.38 97.69C467.036 101.708 455.463 97.4524 445.228 95.1178C442.718 94.546 441.062 93.0346 440.459 91.1845C439.857 89.3344 440.307 87.1374 441.999 85.1978C448.899 77.2859 455.75 67.0338 468.093 63.016Z" fill="#FF85C6"/>
</g>
</g>
</g>
</g>
<defs>
<linearGradient id="paint0_linear_2598_15864" x1="327.817" y1="71.8437" x2="23.8174" y2="296.344" gradientUnits="userSpaceOnUse">
<stop stop-color="#FF92AA"/>
<stop offset="1" stop-color="#FFA2B7"/>
</linearGradient>
<linearGradient id="paint1_linear_2598_15864" x1="114.317" y1="170.846" x2="342.317" y2="438.346" gradientUnits="userSpaceOnUse">
<stop stop-color="#FF4E9F"/>
<stop offset="1" stop-color="#FF328E"/>
</linearGradient>
<linearGradient id="paint2_linear_2598_15864" x1="398.988" y1="156.844" x2="398.988" y2="368.015" gradientUnits="userSpaceOnUse">
<stop stop-color="#FF8FAC"/>
<stop offset="1" stop-color="#FF6A91"/>
</linearGradient>
<linearGradient id="paint3_linear_2598_15864" x1="355.817" y1="59.8438" x2="453.317" y2="334.344" gradientUnits="userSpaceOnUse">
<stop stop-color="#FF9F7E"/>
<stop offset="1" stop-color="#FF7051"/>
</linearGradient>
<clipPath id="clip0_2598_15864">
<rect width="33.137" height="40.0014" fill="white" transform="translate(445.953 85.0684) rotate(-150.898)"/>
</clipPath>
<clipPath id="clip1_2598_15864">
<rect width="45.0745" height="58.7659" fill="white" transform="translate(447.435 112.615) rotate(-108.03)"/>
</clipPath>
</defs>
</svg>
